<svg id="coding" xmlns="http://www.w3.org/2000/svg" viewBox="0 0 668.6 299.42"><defs><style>.cls-1{fill:#fff;}.cls-1,.cls-2{stroke:#231f20;stroke-miterlimit:10;stroke-width:3px;}.cls-2{fill:none;}</style></defs><title>coding_icon</title><polygon id="l-tag-top" class="cls-1" points="129.4 29.82 153.14 42.77 32.28 237 2.07 215.41 129.4 29.82"/><polygon id="l-tag-bot" class="cls-1" points="172.56 271.53 155.29 295.26 32.28 237 56.02 204.63 172.56 271.53"/><polygon id="r-tag-top" class="cls-1" points="483.32 12.55 623.6 161.46 649.5 137.72 509.22 1.76 483.32 12.55"/><polygon id="r-tag-bot" class="cls-1" points="530.8 282.32 552.38 297.42 666.76 167.94 649.5 137.72 530.8 282.32"/><path id="heart" class="cls-1" d="M370.4,304.54s-88.49-58.27-120.86-17.26-12.95,79.85,23.74,114.38S383.35,488,383.35,488,478.3,352,486.93,339.07s10.79-34.53,10.79-34.53-6.47-82-54-60.42S370.4,304.54,370.4,304.54Z" transform="translate(-64.04 -207.82)"/><line id="heart-det2" class="cls-2" x1="384.05" y1="131.25" x2="336.57" y2="217.57"/><line id="heart-det" class="cls-2" x1="349.52" y1="148.51" x2="335.13" y2="175.13"/></svg>