<svg id="package_design_logo" xmlns="http://www.w3.org/2000/svg" viewBox="0 0 668.15 567.01"><defs><style>.cls-1{fill:#fff;stroke:#231f20;stroke-miterlimit:10;stroke-width:3px;}</style></defs><title>package_design_logo</title><polygon id="front" class="cls-1" points="111.73 450.3 369.83 563.61 385.57 313.37 118.02 240.98 111.73 450.3"/><polygon id="last-fold" class="cls-1" points="393.44 1.75 299.01 80.45 527.22 189.04 618.5 104.05 393.44 1.75"/><polygon id="length" class="cls-1" points="527.22 189.04 535.09 425.12 369.83 563.61 385.57 313.37 527.22 189.04"/><polyline id="_3-folds" data-name="3-folds" class="cls-1" points="299.01 80.45 154.22 45.82 3.13 137.1 141.63 204.78 29.89 244.13 332.06 373.18 385.57 313.37 544.53 390.49 665.71 269.31 527.22 189.04"/><polygon id="inside" class="cls-1" points="299.01 80.45 141.63 204.78 385.57 313.37 527.22 189.04 299.01 80.45"/></svg>