<svg xmlns="http://www.w3.org/2000/svg" viewBox="0 0 390.54 255.66"><defs><style>.cls-1,.cls-6{fill:#5cbf8c;}.cls-1{fill-rule:evenodd;}.cls-2,.cls-3{fill:none;stroke-miterlimit:10;stroke-width:2px;}.cls-2{stroke:#fff;}.cls-3{stroke:#5cbf8c;}.cls-4{fill:#fff;}.cls-5{font-size:89px;fill:#e6eb9c;}.cls-5,.cls-6{font-family:Copperplate-Bold, Copperplate;font-weight:700;}.cls-6{font-size:95px;}</style></defs><title>portfolio_logo</title><g id="Layer_4" data-name="Layer 4"><path class="cls-1" d="M271.37,230.59H499.66L384.3,115.23S271.37,229.67,271.37,230.59Z" transform="translate(-187.38 -96.25)"/><line class="cls-2" x1="196.97" y1="8.3" x2="196.74" y2="45.75"/><line class="cls-2" x1="255.36" y1="115.53" x2="312.27" y2="134.34"/><line class="cls-2" x1="138.39" y1="115.53" x2="83.98" y2="134.34"/><circle class="cls-2" cx="196.79" cy="50.14" r="4.83"/><circle class="cls-2" cx="141.37" cy="113.62" r="4.83"/><circle class="cls-2" cx="251.4" cy="113.94" r="4.83"/><circle class="cls-2" cx="197.37" cy="21.34" r="20.34"/><path class="cls-3" d="M369.33,130.85a20.34,20.34,0,1,1,30.48.41" transform="translate(-187.38 -96.25)"/><path class="cls-4" d="M363.81,183.79a10,10,0,0,1-2.07-5.79v-3.1a9,9,0,0,1,17.92,0v5.79l-3.58.42V174.9a5.38,5.38,0,0,0-10.76,0V178a5.79,5.79,0,0,0,1.25,3.45l10.95,13a10.17,10.17,0,0,1,2.14,5.92v4.48a9,9,0,0,1-17.92,0v-6.82l3.58-.41v7.23a5.38,5.38,0,0,0,10.76,0V200.4a6.29,6.29,0,0,0-1.31-3.58Z" transform="translate(-187.38 -96.25)"/><path class="cls-4" d="M399.44,182.21V174.9a5.38,5.38,0,0,0-10.75,0v30a5.38,5.38,0,1,0,10.75,0v-6.34H403v6.34a9,9,0,1,1-17.92,0v-30a9,9,0,1,1,17.92,0v6.89Z" transform="translate(-187.38 -96.25)"/><text class="cls-5" transform="translate(45.71 180.24)">Sarah</text><text class="cls-6" transform="translate(0 228.3)">Conway</text></g></svg>